<svg width="30" height="30" viewBox="0 0 30 30" fill="none" xmlns="http://www.w3.org/2000/svg">
<g clip-path="url(#clip0_84_1642)">
<path d="M15 2.5C8.1 2.5 2.5 8.1 2.5 15C2.5 21.9 8.1 27.5 15 27.5C21.9 27.5 27.5 21.9 27.5 15C27.5 8.1 21.9 2.5 15 2.5ZM16.7625 22.6125V23.3375C16.7625 24.25 16.0125 25 15.1 25H15.0875C14.175 25 13.425 24.25 13.425 23.3375V22.5875C11.7625 22.2375 10.2875 21.325 9.6625 19.7875C9.375 19.1 9.9125 18.3375 10.6625 18.3375H10.9625C11.425 18.3375 11.8 18.65 11.975 19.0875C12.3375 20.025 13.2875 20.675 15.1125 20.675C17.5625 20.675 18.1125 19.45 18.1125 18.6875C18.1125 17.65 17.5625 16.675 14.775 16.0125C11.675 15.2625 9.55 13.9875 9.55 11.425C9.55 9.275 11.2875 7.875 13.4375 7.4125V6.6625C13.4375 5.75 14.1875 5 15.1 5H15.1125C16.025 5 16.775 5.75 16.775 6.6625V7.4375C18.5 7.8625 19.5875 8.9375 20.0625 10.2625C20.3125 10.95 19.7875 11.675 19.05 11.675H18.725C18.2625 11.675 17.8875 11.35 17.7625 10.9C17.475 9.95 16.6875 9.3375 15.1125 9.3375C13.2375 9.3375 12.1125 10.1875 12.1125 11.3875C12.1125 12.4375 12.925 13.125 15.45 13.775C17.975 14.425 20.675 15.5125 20.675 18.6625C20.65 20.95 18.9375 22.2 16.7625 22.6125V22.6125Z" fill="#B4B4B4"/>
</g>
<defs>
<clipPath id="clip0_84_1642">
<rect width="30" height="30" fill="white"/>
</clipPath>
</defs>
</svg>
