<svg width="30" height="30" viewBox="0 0 30 30" fill="none" xmlns="http://www.w3.org/2000/svg">
<g clip-path="url(#clip0_84_1638)">
<path d="M16.4625 2.5H7.5C6.125 2.5 5 3.625 5 5V25C5 26.375 6.125 27.5 7.5 27.5H22.5C23.875 27.5 25 26.375 25 25V11.0375C25 10.375 24.7375 9.7375 24.2625 9.275L18.225 3.2375C17.7625 2.7625 17.125 2.5 16.4625 2.5ZM15 12.5C16.375 12.5 17.5 13.625 17.5 15C17.5 16.375 16.375 17.5 15 17.5C13.625 17.5 12.5 16.375 12.5 15C12.5 13.625 13.625 12.5 15 12.5ZM20 22.5H10V21.7875C10 20.775 10.6 19.875 11.525 19.475C12.5875 19.0125 13.7625 18.75 15 18.75C16.2375 18.75 17.4125 19.0125 18.475 19.475C19.4 19.875 20 20.775 20 21.7875V22.5Z" fill="#B4B4B4"/>
</g>
<defs>
<clipPath id="clip0_84_1638">
<rect width="30" height="30" fill="white"/>
</clipPath>
</defs>
</svg>
