<svg width="24" height="23" viewBox="0 0 24 23" fill="none" xmlns="http://www.w3.org/2000/svg">
<path d="M8.75 16.25V6.25C8.75 4.875 9.8625 3.75 11.25 3.75H22.5V2.5C22.5 1.125 21.375 0 20 0H2.5C1.1125 0 0 1.125 0 2.5V20C0 21.375 1.1125 22.5 2.5 22.5H20C21.375 22.5 22.5 21.375 22.5 20V18.75H11.25C9.8625 18.75 8.75 17.625 8.75 16.25ZM12.5 6.25C11.8125 6.25 11.25 6.8125 11.25 7.5V15C11.25 15.6875 11.8125 16.25 12.5 16.25H23.75V6.25H12.5ZM16.25 13.125C15.2125 13.125 14.375 12.2875 14.375 11.25C14.375 10.2125 15.2125 9.375 16.25 9.375C17.2875 9.375 18.125 10.2125 18.125 11.25C18.125 12.2875 17.2875 13.125 16.25 13.125Z" fill="#B4B4B4"/>
</svg>
