<svg width="259" height="108" viewBox="0 0 259 108" fill="none" xmlns="http://www.w3.org/2000/svg">
<path d="M4.91625 63.864C4.91625 55.864 10.3562 52.344 20.2762 52.344H47.1562C57.0763 52.344 62.5163 55.864 62.5163 63.864C62.5163 71.864 57.0763 75.384 47.1562 75.384H20.2762C10.3562 75.384 4.91625 71.864 4.91625 63.864ZM19.6362 39.544H39.6043V48.504H14.5162C8.88425 48.504 5.55625 45.176 5.55625 39.544V17.016H38.3242V25.976H17.7162V29.176H38.3242V36.216H17.7162V37.624C17.7162 38.904 18.3562 39.544 19.6362 39.544ZM49.7163 48.504V37.944H41.3963V27.704H49.7163V17.016H61.8763V48.504H49.7163ZM20.2762 65.784H47.1562C49.2043 65.784 50.3563 65.272 50.3563 63.864C50.3563 62.456 49.2043 61.944 47.1562 61.944H20.2762C18.2283 61.944 17.0763 62.456 17.0763 63.864C17.0763 65.272 18.2283 65.784 20.2762 65.784ZM70.1988 63.224C70.1988 53.944 75.6388 51.064 85.5588 51.064H109.879C119.799 51.064 125.239 53.944 125.239 63.224C125.239 72.504 119.799 75.384 109.879 75.384H85.5588C75.6388 75.384 70.1988 72.504 70.1988 63.224ZM106.679 17.016V26.616H95.2228C95.9268 33.528 100.855 36.536 106.679 36.984V47.224C99.6388 46.52 92.9828 43.32 88.7588 37.368C84.5347 43.32 77.8788 47.16 70.8388 47.864V37.624C76.6628 37.176 81.5908 33.592 82.2948 26.616H70.8388V17.016H106.679ZM112.439 47.224V17.016H124.599V27.064H130.999V37.304H124.599V47.224H112.439ZM85.5588 65.784H109.879C111.927 65.784 113.079 65.272 113.079 63.224C113.079 61.176 111.927 60.664 109.879 60.664H85.5588C83.5108 60.664 82.3588 61.176 82.3588 63.224C82.3588 65.272 83.5108 65.784 85.5588 65.784ZM180.281 75.384V17.016H192.441V75.384H180.281ZM136.121 59.64V32.568C136.121 22.776 142.777 16.248 153.785 16.248C164.857 16.248 171.577 22.776 171.577 32.568V59.64C171.577 69.432 164.857 75.96 153.785 75.96C142.777 75.96 136.121 69.432 136.121 59.64ZM148.281 59.64C148.281 63.672 150.073 66.36 153.785 66.36C157.497 66.36 159.289 63.672 159.289 59.64V32.568C159.289 28.536 157.497 25.848 153.785 25.848C150.073 25.848 148.281 28.536 148.281 32.568V59.64Z" fill="#FF795B"/>
<path d="M46.8159 102.656H53.1679V104.096H46.3359C45.2159 104.096 44.6559 103.536 44.6559 102.416V89.504H46.4159V102.256C46.4159 102.528 46.5439 102.656 46.8159 102.656ZM56.3359 104.096V96.192H50.5599V94.688H56.3359V89.504H58.0959V104.096H56.3359ZM74.5766 102.656V104.096H62.6566C61.5366 104.096 60.9766 103.536 60.9766 102.416V100.448H62.7366V102.256C62.7366 102.528 62.8646 102.656 63.1366 102.656H74.5766ZM74.5766 97.056V98.496H60.8166V97.056H74.5766ZM62.9766 93.824H74.5766V95.264H62.4966C61.3766 95.264 60.8166 94.704 60.8166 93.584V89.504H62.5766V93.424C62.5766 93.696 62.7046 93.824 62.9766 93.824ZM80.5047 102.592C82.5047 102.512 83.9447 100.4 83.9447 98.288V89.504H85.7047V98.288C85.7047 100.4 87.3047 102.512 89.3047 102.592V104.096C87.7687 104.016 85.7527 102.928 84.8247 101.344C83.8967 102.928 82.0407 104.016 80.5047 104.096V102.592ZM91.7047 104.096V89.504H93.4647V95.648H95.5447V97.152H93.4647V104.096H91.7047ZM108.825 99.296V90.944H96.8253V89.504H110.585V99.296H108.825ZM110.585 102.656V104.096H96.8253V102.656H101.865V95.264H103.625V102.656H110.585ZM130.113 98.976H127.553V102.656H130.113V104.096H116.673V102.656H119.233V98.976H116.673V97.536H130.113V98.976ZM116.513 94.912C118.353 94.752 120.113 93.2 120.113 90.928V89.504H121.873V90.928C121.873 93.2 123.793 94.672 125.633 94.752V96.256C123.937 96.176 121.921 95.248 120.993 93.664C120.065 95.248 118.209 96.256 116.513 96.416V94.912ZM120.993 102.656H125.793V98.976H120.993V102.656ZM128.353 96.256V89.504H130.113V96.256H128.353ZM144.834 99.296V90.944H132.834V89.504H146.594V99.296H144.834ZM146.594 102.656V104.096H132.834V102.656H137.874V95.264H139.634V102.656H146.594ZM150.435 100.544L149.635 105.744H148.355L148.515 100.544H150.435ZM157.725 102.656H166.605V89.504H168.365V95.648H170.445V97.152H168.365V104.096H157.245C156.125 104.096 155.565 103.536 155.565 102.416V89.504H157.325V102.256C157.325 102.528 157.453 102.656 157.725 102.656ZM185.486 102.656V104.096H173.566C172.446 104.096 171.886 103.536 171.886 102.416V100.448H173.646V102.256C173.646 102.528 173.774 102.656 174.046 102.656H185.486ZM185.486 97.056V98.496H171.726V97.056H185.486ZM173.886 93.824H185.486V95.264H173.406C172.286 95.264 171.726 94.704 171.726 93.584V89.504H173.486V93.424C173.486 93.696 173.614 93.824 173.886 93.824ZM191.574 98.56V97.184H202.038C203.67 97.184 204.534 97.952 204.534 99.232C204.534 100.512 203.67 101.296 202.038 101.296H194.07C193.558 101.296 193.174 101.456 193.174 102C193.174 102.544 193.558 102.72 194.07 102.72H204.534V104.096H193.91C192.278 104.096 191.414 103.312 191.414 102.032C191.414 100.752 192.278 99.984 193.91 99.984H201.878C202.39 99.984 202.774 99.808 202.774 99.264C202.774 98.72 202.39 98.56 201.878 98.56H191.574ZM191.414 94.592C193.254 94.432 194.854 93.04 194.854 90.768V89.504H196.614V90.768C196.614 93.04 198.374 94.352 200.214 94.432V95.936C198.518 95.856 196.662 95.088 195.734 93.504C194.806 95.088 193.11 95.936 191.414 96.096V94.592ZM202.614 95.936V89.504H204.374V91.968H206.294V93.472H204.374V95.936H202.614ZM219.735 99.296V90.944H207.735V89.504H221.495V99.296H219.735ZM221.495 102.656V104.096H207.735V102.656H212.775V95.264H214.535V102.656H221.495ZM241.023 98.976H238.463V102.656H241.023V104.096H227.583V102.656H230.143V98.976H227.583V97.536H241.023V98.976ZM227.423 94.912C229.263 94.752 231.023 93.2 231.023 90.928V89.504H232.783V90.928C232.783 93.2 234.703 94.672 236.543 94.752V96.256C234.847 96.176 232.831 95.248 231.903 93.664C230.975 95.248 229.119 96.256 227.423 96.416V94.912ZM231.903 102.656H236.703V98.976H231.903V102.656ZM239.263 96.256V89.504H241.023V96.256H239.263ZM255.583 104.096V97.152H252.415V100.176C252.415 102.624 250.767 104.256 248.127 104.256C245.487 104.256 243.903 102.624 243.903 100.176V93.408C243.903 90.96 245.487 89.328 248.127 89.328C250.767 89.328 252.415 90.96 252.415 93.408V95.648H255.583V89.504H257.343V104.096H255.583ZM248.127 102.816C249.727 102.816 250.655 101.824 250.655 100.336V93.248C250.655 91.76 249.727 90.768 248.127 90.768C246.527 90.768 245.663 91.76 245.663 93.248V100.336C245.663 101.824 246.527 102.816 248.127 102.816Z" fill="#FF795B"/>
</svg>
